Coordinates
version=1
nRows=7
nColumns=40
inDegrees=yes

Units are S.I. units (second, meters, Newtons, ...)
Angles are in degrees.

endheader
time	pelvis_tilt	pelvis_list	pelvis_rotation	pelvis_tx	pelvis_ty	pelvis_tz	hip_flexion_r	hip_adduction_r	hip_rotation_r	knee_angle_r	knee_angle_r_beta	ankle_angle_r	subtalar_angle_r	mtp_angle_r	hip_flexion_l	hip_adduction_l	hip_rotation_l	knee_angle_l	knee_angle_l_beta	ankle_angle_l	subtalar_angle_l	mtp_angle_l	lumbar_extension	lumbar_bending	lumbar_rotation	arm_flex_r	arm_add_r	arm_rot_r	elbow_flex_r	pro_sup_r	wrist_flex_r	wrist_dev_r	arm_flex_l	arm_add_l	arm_rot_l	elbow_flex_l	pro_sup_l	wrist_flex_l	wrist_dev_l
     20.01250000	     -3.42062261	     -4.97567627	      9.31073803	      0.97584482	      0.93047098	      0.45054832	      8.42493831	      3.37326172	    -17.84523513	     15.48522006	     15.48522006	     12.30188860	     -3.51302498	     -2.14642557	     32.81406536	    -12.17634235	      2.10447764	     57.34115855	     57.34115855	     10.26896553	    -19.31163866	     19.01972277	    -10.05650138	      5.68971278	      4.94099368	     24.16750642	    -19.31455804	     -4.84467249	     77.58772816	     44.71387006	      0.00000000	      0.00000000	      4.67431982	     -7.63568128	    -13.58524388	     40.14513834	     46.43362081	      0.00000000	      0.00000000
     20.02557143	     -3.56377236	     -4.88771849	      9.72729233	      0.97402609	      0.93088090	      0.45019192	      7.81840579	      3.39045764	    -18.28696877	     14.51934009	     14.51934009	     12.19674362	     -3.01877279	     -2.15742889	     33.18540682	    -11.79405223	      2.12266422	     54.76728503	     54.76728503	     10.43348259	    -19.28995768	     18.89147583	    -10.16631876	      5.56055357	      4.54752431	     25.03332910	    -18.84688914	     -5.07225222	     80.08339447	     44.66568133	      0.00000000	      0.00000000	      4.42086988	     -6.92629890	    -12.51763739	     36.52139467	     46.28314906	      0.00000000	      0.00000000
     20.03864286	     -3.76448988	     -4.75213991	     10.06238162	      0.97207708	      0.93114678	      0.44973149	      7.48633336	      3.28863285	    -18.56360278	     13.97451351	     13.97451351	     12.13947267	     -2.79526628	     -2.17156653	     33.46420169	    -11.27752172	      2.21691738	     51.97862102	     51.97862102	     10.49281774	    -19.20998562	     18.67264405	    -10.25055057	      5.30179838	      4.51257851	     25.70531254	    -18.70423729	     -5.34320935	     81.56401776	     44.64419186	      0.00000000	      0.00000000	      3.81868056	     -6.15008826	    -11.80912974	     34.60196704	     46.17526414	      0.00000000	      0.00000000
     20.05171429	     -4.13285593	     -4.62660178	     10.35794643	      0.97000354	      0.93105479	      0.44909256	      7.40321598	      3.13953908	    -18.76700427	     13.55506088	     13.55506088	     12.15870231	     -2.72310942	     -2.16299900	     33.87684062	    -10.63536724	      2.50427398	     49.16526664	     49.16526664	     10.56203779	    -19.09136788	     18.68966190	    -10.09906664	      5.02556265	      4.59187444	     26.48174248	    -18.79879883	     -5.51001750	     82.34262467	     44.63217721	      0.00000000	      0.00000000	      2.91204096	     -5.33780528	    -11.48226925	     33.70692646	     46.11479492	      0.00000000	      0.00000000
     20.06478571	     -4.39047809	     -4.52061273	     10.62999861	      0.96804077	      0.93108570	      0.44836816	      7.15225192	      3.03096728	    -19.07914774	     13.05052384	     13.05052384	     12.12957545	     -2.43000714	     -2.18073499	     34.05441908	     -9.99242085	      2.92936095	     46.24745157	     46.24745157	     10.52884977	    -18.88469245	     18.44234265	    -10.11131810	      4.74797632	      4.46125994	     27.20862679	    -18.59360279	     -5.59731060	     83.46725262	     44.60737043	      0.00000000	      0.00000000	      2.06178487	     -4.76921722	    -11.04171226	     32.49232310	     46.03868217	      0.00000000	      0.00000000
     20.07785714	     -4.56509437	     -4.50518740	     10.89820049	      0.96615000	      0.93108244	      0.44751338	      6.80758317	      2.98061944	    -19.72353660	     12.54428632	     12.54428632	     12.07880817	     -1.54741830	     -2.68214632	     33.98165687	     -9.50787066	      3.36407625	     43.07480333	     43.07480333	      9.23558101	    -18.60317572	     14.78449931	    -10.17997923	      4.75648379	      5.26262488	     26.95715326	    -19.07261678	     -6.47166889	     85.98649567	     44.61335074	      0.00000000	      0.00000000	      2.38309229	     -4.34719908	     -8.21704132	     28.98166069	     45.62596110	      0.00000000	      0.00000000
     20.09092857	     -4.91021673	     -4.52284315	     11.10174907	      0.96416896	      0.93072473	      0.44657855	      6.75880184	      2.96187678	    -19.90468694	     12.20646658	     12.20646658	     12.10412752	     -1.47483016	     -2.68723034	     34.22966659	     -8.96721322	      3.98601703	     40.34731769	     40.34731769	      9.42925133	    -17.89236082	     14.87578230	    -10.05658257	      4.63738237	      5.35250101	     27.61313033	    -19.11595810	     -6.60128159	     86.50310859	     44.60743364	      0.00000000	      0.00000000	      1.37256880	     -3.84888037	     -8.03134732	     28.57972283	     45.57956390	      0.00000000	      0.00000000
